<svg xmlns="http://www.w3.org/2000/svg" version="1.1" xmlns:xlink="http://www.w3.org/1999/xlink" xmlns:svgjs="http://svgjs.dev/svgjs" width="1530" height="2100" preserveAspectRatio="none" viewBox="0 0 1530 2100"><g mask="url(&quot;#SvgjsMask1179&quot;)" fill="none"><rect width="1530" height="2100" x="0" y="0" fill="rgba(219, 218, 213, 1)"></rect><path d="M1109 194L1108 1562" stroke-width="8" stroke="url(&quot;#SvgjsLinearGradient1180&quot;)" stroke-linecap="round" class="Up"></path><path d="M84 1954L83 603" stroke-width="8" stroke="url(&quot;#SvgjsLinearGradient1180&quot;)" stroke-linecap="round" class="Up"></path><path d="M494 1987L493 746" stroke-width="8" stroke="url(&quot;#SvgjsLinearGradient1181&quot;)" stroke-linecap="round" class="Down"></path><path d="M900 1444L899 393" stroke-width="8" stroke="url(&quot;#SvgjsLinearGradient1180&quot;)" stroke-linecap="round" class="Up"></path><path d="M765 2L764 -588" stroke-width="8" stroke="url(&quot;#SvgjsLinearGradient1181&quot;)" stroke-linecap="round" class="Down"></path><path d="M1472 152L1471 1393" stroke-width="10" stroke="url(&quot;#SvgjsLinearGradient1181&quot;)" stroke-linecap="round" class="Down"></path><path d="M110 1077L109 2340" stroke-width="8" stroke="url(&quot;#SvgjsLinearGradient1181&quot;)" stroke-linecap="round" class="Down"></path><path d="M178 395L177 1352" stroke-width="8" stroke="url(&quot;#SvgjsLinearGradient1181&quot;)" stroke-linecap="round" class="Down"></path><path d="M665 328L664 -351" stroke-width="6" stroke="url(&quot;#SvgjsLinearGradient1180&quot;)" stroke-linecap="round" class="Up"></path><path d="M1175 904L1174 1613" stroke-width="10" stroke="url(&quot;#SvgjsLinearGradient1181&quot;)" stroke-linecap="round" class="Down"></path><path d="M167 941L166 1771" stroke-width="10" stroke="url(&quot;#SvgjsLinearGradient1181&quot;)" stroke-linecap="round" class="Down"></path><path d="M277 1607L276 2233" stroke-width="10" stroke="url(&quot;#SvgjsLinearGradient1180&quot;)" stroke-linecap="round" class="Up"></path><path d="M612 465L611 -992" stroke-width="8" stroke="url(&quot;#SvgjsLinearGradient1181&quot;)" stroke-linecap="round" class="Down"></path><path d="M1477 1812L1476 3060" stroke-width="8" stroke="url(&quot;#SvgjsLinearGradient1180&quot;)" stroke-linecap="round" class="Up"></path><path d="M892 1561L891 585" stroke-width="6" stroke="url(&quot;#SvgjsLinearGradient1181&quot;)" stroke-linecap="round" class="Down"></path><path d="M1364 616L1363 -245" stroke-width="6" stroke="url(&quot;#SvgjsLinearGradient1181&quot;)" stroke-linecap="round" class="Down"></path><path d="M596 1856L595 3219" stroke-width="8" stroke="url(&quot;#SvgjsLinearGradient1181&quot;)" stroke-linecap="round" class="Down"></path><path d="M1143 701L1142 -414" stroke-width="6" stroke="url(&quot;#SvgjsLinearGradient1180&quot;)" stroke-linecap="round" class="Up"></path><path d="M1294 405L1293 -1126" stroke-width="10" stroke="url(&quot;#SvgjsLinearGradient1180&quot;)" stroke-linecap="round" class="Up"></path><path d="M186 1315L185 633" stroke-width="6" stroke="url(&quot;#SvgjsLinearGradient1181&quot;)" stroke-linecap="round" class="Down"></path><path d="M1240 687L1239 -240" stroke-width="10" stroke="url(&quot;#SvgjsLinearGradient1180&quot;)" stroke-linecap="round" class="Up"></path><path d="M366 1656L365 2605" stroke-width="6" stroke="url(&quot;#SvgjsLinearGradient1181&quot;)" stroke-linecap="round" class="Down"></path><path d="M1347 608L1346 -91" stroke-width="10" stroke="url(&quot;#SvgjsLinearGradient1181&quot;)" stroke-linecap="round" class="Down"></path><path d="M559 1159L558 1812" stroke-width="10" stroke="url(&quot;#SvgjsLinearGradient1180&quot;)" stroke-linecap="round" class="Up"></path><path d="M883 1348L882 2242" stroke-width="6" stroke="url(&quot;#SvgjsLinearGradient1181&quot;)" stroke-linecap="round" class="Down"></path><path d="M1481 2040L1480 2969" stroke-width="6" stroke="url(&quot;#SvgjsLinearGradient1181&quot;)" stroke-linecap="round" class="Down"></path><path d="M1415 434L1414 1327" stroke-width="10" stroke="url(&quot;#SvgjsLinearGradient1181&quot;)" stroke-linecap="round" class="Down"></path><path d="M589 46L588 -1230" stroke-width="10" stroke="url(&quot;#SvgjsLinearGradient1181&quot;)" stroke-linecap="round" class="Down"></path><path d="M182 1164L181 1747" stroke-width="10" stroke="url(&quot;#SvgjsLinearGradient1180&quot;)" stroke-linecap="round" class="Up"></path><path d="M479 1890L478 643" stroke-width="10" stroke="url(&quot;#SvgjsLinearGradient1180&quot;)" stroke-linecap="round" class="Up"></path><path d="M111 1839L110 2649" stroke-width="6" stroke="url(&quot;#SvgjsLinearGradient1181&quot;)" stroke-linecap="round" class="Down"></path><path d="M1145 1111L1144 391" stroke-width="6" stroke="url(&quot;#SvgjsLinearGradient1181&quot;)" stroke-linecap="round" class="Down"></path><path d="M615 121L614 -655" stroke-width="6" stroke="url(&quot;#SvgjsLinearGradient1181&quot;)" stroke-linecap="round" class="Down"></path><path d="M1089 2015L1088 3544" stroke-width="6" stroke="url(&quot;#SvgjsLinearGradient1180&quot;)" stroke-linecap="round" class="Up"></path><path d="M420 42L419 -674" stroke-width="6" stroke="url(&quot;#SvgjsLinearGradient1180&quot;)" stroke-linecap="round" class="Up"></path><path d="M1163 1537L1162 2940" stroke-width="10" stroke="url(&quot;#SvgjsLinearGradient1180&quot;)" stroke-linecap="round" class="Up"></path><path d="M306 1357L305 2377" stroke-width="6" stroke="url(&quot;#SvgjsLinearGradient1181&quot;)" stroke-linecap="round" class="Down"></path><path d="M123 764L122 -14" stroke-width="6" stroke="url(&quot;#SvgjsLinearGradient1180&quot;)" stroke-linecap="round" class="Up"></path><path d="M1508 1657L1507 2939" stroke-width="8" stroke="url(&quot;#SvgjsLinearGradient1181&quot;)" stroke-linecap="round" class="Down"></path></g><defs><mask id="SvgjsMask1179"><rect width="1530" height="2100" fill="#ffffff"></rect></mask><linearGradient x1="0%" y1="100%" x2="0%" y2="0%" id="SvgjsLinearGradient1180"><stop stop-color="rgba(64, 87, 127, 0)" offset="0"></stop><stop stop-color="rgba(64, 87, 127, 1)" offset="1"></stop></linearGradient><linearGradient x1="0%" y1="0%" x2="0%" y2="100%" id="SvgjsLinearGradient1181"><stop stop-color="rgba(64, 87, 127, 0)" offset="0"></stop><stop stop-color="rgba(64, 87, 127, 1)" offset="1"></stop></linearGradient></defs></svg>