<svg
id="origamid-svg"
  xmlns="http://www.w3.org/2000/svg"
viewBox="0 0 143.1 24.6"
>
  <style>
  #origamid-svg path {
    fill: white;
  }
  #origamid-svg path.svg-g {
    fill: #aa88ff;
    transition: fill 0.3s ease;
  }
  #origamid-svg:hover path.svg-g {
    fill: white;
  }
  </style>
  <title>Origamid</title>
  <path
  class="svg-g"
  d="M68.8 21.2c2.6-.6 5.2-2.1 6.5-5.4H63.4v-3.2h17v1.5H79.6c-1 5.1-4.6 10.3-12.6 10.5l-1.7-1.7s-2.2 1-2.4 1.2c-5.5-1.6-8.7-6.7-8.7-11.7C54 5.3 59.4 0 66.1 0c4 0 6.8 1.2 9.2 3.4l-2 2.7c-1-1.1-3.6-2.9-7.1-2.9-4.8 0-8.8 3.8-8.8 9.2 0 4.5 3.3 8 7.1 8.9l4.3-.1z"
/>
  <path d="M12.3 24.6C5.5 24.6 0 19.1 0 12.3 0 5.4 5.5 0 12.3 0c6.9 0 12.3 5.5 12.3 12.4 0 6.7-5.5 12.2-12.3 12.2zm0-21.4c-3.7 0-6.6 2-8 5.3-.5 1.2-.8 2.5-.8 3.8 0 1.3.3 2.6.8 3.8 1.5 3.3 4.4 5.3 8 5.3 3.9 0 6.9-2.2 8.3-5.9.4-1 .6-2.1.6-3.2 0-4.9-3.7-9.1-8.9-9.1zM39.3 14.8c-.7.3-1.5.4-2.3.4l6.6 8.8h-4.3l-7.8-11h-.1v11H28V.4h7.3c2.2 0 4.6.4 6.3 2C43.1 3.9 43.8 6 43.8 8c0 3.2-1.4 5.8-4.5 6.8zM35.1 3.6h-3.6v9.1h2.4c3.1 0 6.5-.9 6.5-4.6 0-3.1-2.5-4.5-5.3-4.5zM47 24.1V.4h3.5v23.7H47zM108.7 24.1v-20h-.1l-8 20h-2.1l-8-20h-.1v20H87V.4h5.4l7.1 18.1L106.6.4h5.4v23.7h-3.3zM116 24.1V.4h3.5v23.7H116zM140.1 20.7c-2.6 2.6-5.7 3.4-9.2 3.4h-7.6V.4h7.7c3.8 0 7.4 1.2 9.7 4.4 1.5 2.1 2.4 4.9 2.4 7.6 0 2.7-1 6.3-3 8.3zm-1.1-12c-1.4-3.4-4.3-5.1-8-5.1h-4.2V21h4.1c5.4 0 8.7-3.1 8.7-8.6.1-1.3-.2-2.5-.6-3.7zM78.8.4L62.6 24c1.2.4 2.5.6 3.9.6h.5L79.5 4.9h.1v19.2h3.5V.4h-4.3z" />
</svg>